<?xml version="1.0" standalone="no"?>
<!DOCTYPE svg PUBLIC "-//W3C//DTD SVG 20010904//EN"
 "http://www.w3.org/TR/2001/REC-SVG-20010904/DTD/svg10.dtd">
<svg version="1.0" xmlns="http://www.w3.org/2000/svg"
 width="381.000000pt" height="381.000000pt" viewBox="0 0 381.000000 381.000000"
 preserveAspectRatio="xMidYMid meet">

<g transform="translate(0.000000,381.000000) scale(0.100000,-0.100000)"
fill="#000000" stroke="none">
<path d="M1353 3555 c-124 -34 -213 -108 -270 -223 -37 -74 -38 -79 -38 -186
0 -104 2 -115 32 -178 80 -169 235 -258 422 -244 l86 6 54 -147 c30 -82 56
-152 58 -158 2 -5 -18 -21 -44 -35 -63 -33 -163 -128 -209 -197 -39 -59 -84
-177 -84 -220 l0 -26 -117 7 c-65 3 -159 9 -209 13 l-92 6 -16 66 c-32 131
-124 223 -255 257 -155 39 -317 -39 -391 -191 -21 -43 -25 -64 -25 -145 0
-117 20 -166 97 -244 75 -74 144 -99 258 -94 101 5 161 32 227 100 42 43 93
137 93 172 0 17 6 18 83 13 45 -4 139 -10 208 -13 l127 -7 11 -74 c20 -137 68
-239 152 -328 l48 -51 -164 -219 c-91 -120 -168 -222 -173 -227 -5 -5 -34 3
-65 17 -251 115 -543 -44 -589 -321 -30 -181 70 -367 239 -447 64 -30 74 -32
183 -32 111 0 118 1 182 34 85 42 159 119 201 208 30 63 32 76 32 173 0 97 -2
110 -31 171 -18 37 -48 85 -69 107 -23 26 -34 46 -29 54 4 7 81 111 171 230
l163 218 53 -29 c77 -43 148 -62 250 -70 l92 -6 30 -227 31 -227 -41 -15 c-89
-35 -159 -121 -174 -216 -21 -131 44 -252 167 -308 46 -21 65 -24 126 -20 155
10 266 124 266 274 0 148 -89 256 -233 285 -37 8 -58 17 -61 28 -11 37 -58
422 -53 434 3 7 25 19 48 26 69 20 152 68 213 123 l56 50 38 -28 c362 -275
557 -429 555 -438 -1 -6 -12 -38 -24 -71 -62 -175 36 -375 215 -433 79 -26
133 -28 206 -6 98 29 181 101 224 193 33 71 30 207 -5 282 -33 69 -86 124
-159 163 -43 23 -71 31 -131 34 -94 5 -157 -13 -230 -68 l-51 -38 -293 224
c-162 124 -297 229 -300 234 -3 5 8 35 24 68 86 171 89 345 7 516 l-33 68 136
100 c75 56 172 127 215 159 l79 59 31 -25 c156 -127 363 -115 491 28 151 167
96 438 -108 536 -82 39 -148 47 -228 26 -152 -38 -251 -154 -266 -307 -4 -51
-1 -77 19 -136 l25 -73 -216 -159 -215 -158 -61 56 c-71 67 -157 115 -246 138
-75 20 -205 22 -268 5 -24 -7 -47 -9 -52 -4 -6 6 -119 299 -119 308 0 2 21 17
48 33 127 82 194 205 194 357 0 280 -261 482 -529 410z m244 -77 c74 -27 146
-95 185 -176 30 -60 33 -75 33 -157 0 -82 -3 -97 -33 -157 -62 -127 -177 -199
-317 -201 -87 0 -154 21 -220 71 -140 105 -183 289 -106 447 84 169 274 241
458 173z m1638 -472 c62 -28 128 -101 149 -163 44 -129 -10 -269 -131 -340
-34 -20 -63 -27 -119 -31 -68 -4 -80 -2 -139 27 -105 52 -158 136 -158 253 0
117 73 223 179 262 63 23 160 20 219 -8z m-1355 -616 c-8 -5 -19 -10 -25 -10
-5 0 -3 5 5 10 8 5 20 10 25 10 6 0 3 -5 -5 -10z m103 3 c-7 -2 -19 -2 -25 0
-7 3 -2 5 12 5 14 0 19 -2 13 -5z m-296 -60 c-4 -3 -1 -13 6 -22 11 -14 10
-14 -5 -2 -16 12 -16 31 -1 31 4 0 3 -3 0 -7z m483 -8 c-15 -18 0 -20 20 -2
12 10 12 9 2 -5 -10 -13 -10 -17 0 -21 7 -3 0 -4 -17 -2 -16 1 -28 6 -27 10 2
4 -2 12 -10 17 -10 8 -9 9 4 4 10 -3 20 -1 23 4 4 6 9 10 12 10 3 0 0 -7 -7
-15z m-425 -24 c3 -6 -3 -9 -14 -8 -11 0 -17 5 -15 9 7 11 22 10 29 -1z m-134
-35 c-14 -15 -20 -30 -15 -38 4 -7 4 -10 -1 -6 -5 5 -24 -4 -44 -19 -27 -20
-23 -13 19 30 30 31 57 57 59 57 3 0 -6 -11 -18 -24z m664 4 c10 -11 16 -20
13 -20 -3 0 -13 9 -23 20 -10 11 -16 20 -13 20 3 0 13 -9 23 -20z m-625 -10
c0 -5 -5 -10 -11 -10 -5 0 -7 5 -4 10 3 6 8 10 11 10 2 0 4 -4 4 -10z m12 -32
c-7 -7 -12 -8 -12 -2 0 6 3 14 7 17 3 4 9 5 12 2 2 -3 -1 -11 -7 -17z m642 -4
c3 -8 2 -12 -4 -9 -6 3 -10 10 -10 16 0 14 7 11 14 -7z m41 -54 c3 -5 2 -10
-4 -10 -5 0 -13 5 -16 10 -3 6 -2 10 4 10 5 0 13 -4 16 -10z m-755 -10 c0 -5
-4 -10 -10 -10 -5 0 -10 5 -10 10 0 6 5 10 10 10 6 0 10 -4 10 -10z m-76 -36
c4 -10 2 -13 -6 -8 -7 5 -9 2 -5 -8 4 -11 0 -15 -11 -13 -9 1 -21 -3 -25 -9
-6 -7 -7 -6 -4 4 2 8 9 14 15 13 6 -2 14 6 17 17 8 24 11 25 19 4z m881 -14
c10 -11 16 -20 13 -20 -3 0 -13 9 -23 20 -10 11 -16 20 -13 20 3 0 13 -9 23
-20z m-48 -36 c-3 -3 -12 -4 -19 -1 -8 3 -5 6 6 6 11 1 17 -2 13 -5z m-842
-22 c-3 -3 -11 0 -18 7 -9 10 -8 11 6 5 10 -3 15 -9 12 -12z m922 -284 c-3 -8
-6 -5 -6 6 -1 11 2 17 5 13 3 -3 4 -12 1 -19z m-940 -130 c-3 -7 -5 -2 -5 12
0 14 2 19 5 13 2 -7 2 -19 0 -25z m863 -42 c0 -2 -8 -10 -17 -17 -16 -13 -17
-12 -4 4 13 16 21 21 21 13z m-86 -47 c-18 -20 -18 -20 9 -15 15 2 29 0 33 -5
3 -5 0 -8 -8 -7 -7 2 -12 -3 -10 -9 3 -18 -6 -16 -26 3 -17 18 -26 48 -12 39
5 -3 11 -1 15 5 3 5 9 10 12 10 3 0 -2 -9 -13 -21z m-9 -48 c3 -5 2 -12 -3
-15 -5 -3 -9 1 -9 9 0 17 3 19 12 6z m-599 -26 c-1 -8 -5 -17 -8 -21 -5 -4 -4
16 1 34 3 9 9 -1 7 -13z m38 -7 c-5 -8 -1 -9 10 -5 11 4 15 3 11 -4 -10 -14
-28 -6 -31 14 -1 9 2 15 7 11 5 -3 6 -10 3 -16z m524 13 c11 -7 10 -9 -3 -15
-9 -3 -13 -11 -9 -18 4 -7 -2 -4 -13 7 -14 13 -16 22 -9 27 14 10 18 10 34 -1z
m-494 -49 c5 10 7 10 12 0 3 -6 11 -9 17 -5 7 3 9 2 4 -2 -13 -15 -47 -12 -60
4 -10 14 -10 14 5 3 13 -10 17 -10 22 0z m386 -28 c0 -8 -19 -13 -24 -6 -3 5
1 9 9 9 8 0 15 -2 15 -3z m1266 -286 c19 -6 34 -16 34 -20 0 -4 5 -8 12 -8 16
0 78 -60 78 -76 0 -6 7 -17 15 -24 8 -7 12 -16 9 -21 -3 -5 1 -9 8 -10 11 0
11 -2 0 -6 -10 -4 -10 -7 1 -17 8 -6 17 -28 20 -48 5 -31 3 -36 -11 -31 -14 5
-15 3 -4 -8 14 -15 16 -55 2 -64 -5 -3 -7 -12 -3 -20 3 -8 0 -15 -7 -15 -6 0
-9 -4 -6 -9 6 -9 -40 -77 -65 -97 -47 -39 -148 -77 -133 -52 5 10 4 11 -7 1
-17 -17 -42 -17 -33 0 6 9 4 9 -7 0 -15 -15 -58 -17 -79 -3 -12 8 -12 10 -1
10 8 0 11 3 8 6 -4 4 -12 2 -20 -4 -10 -8 -23 -5 -55 14 -23 14 -42 29 -42 35
0 13 13 11 29 -3 11 -10 13 -10 7 0 -5 8 0 12 13 12 11 0 23 5 26 10 3 6 4 10
1 10 -2 0 -13 3 -23 6 -13 4 -14 3 -5 -4 11 -7 9 -10 -8 -15 -15 -4 -20 -2
-17 7 3 7 -1 13 -9 13 -7 0 -11 -4 -8 -8 8 -14 -17 -21 -32 -8 -8 6 -12 14
-10 16 2 3 -4 13 -14 23 -38 38 -58 191 -30 226 7 8 10 14 6 14 -8 0 22 60 42
82 8 10 19 15 25 11 6 -3 7 -1 3 5 -9 15 60 66 79 58 9 -3 13 -2 10 4 -3 5 7
12 22 16 15 3 33 8 38 10 17 6 104 -5 141 -18z"/>
<path d="M3197 1109 c7 -7 15 -10 18 -7 3 3 -2 9 -12 12 -14 6 -15 5 -6 -5z"/>
<path d="M3443 1045 c0 -8 4 -12 9 -9 5 3 6 10 3 15 -9 13 -12 11 -12 -6z"/>
<path d="M3466 1032 c-3 -5 1 -9 9 -9 8 0 12 4 9 9 -3 4 -7 8 -9 8 -2 0 -6 -4
-9 -8z"/>
<path d="M3446 975 c-3 -8 -1 -15 4 -15 6 0 10 7 10 15 0 8 -2 15 -4 15 -2 0
-6 -7 -10 -15z"/>
<path d="M3010 921 c0 -6 4 -13 10 -16 6 -3 7 1 4 9 -7 18 -14 21 -14 7z"/>
<path d="M3521 904 c0 -11 3 -14 6 -6 3 7 2 16 -1 19 -3 4 -6 -2 -5 -13z"/>
<path d="M3447 736 c-4 -10 -1 -13 9 -9 15 6 19 23 5 23 -5 0 -11 -7 -14 -14z"/>
<path d="M3460 710 c0 -5 5 -10 11 -10 5 0 7 5 4 10 -3 6 -8 10 -11 10 -2 0
-4 -4 -4 -10z"/>
<path d="M3450 676 c14 -18 13 -18 -10 -13 -14 4 -19 4 -12 1 6 -3 10 -10 6
-15 -8 -14 12 -10 25 5 9 10 7 17 -6 27 -17 13 -17 13 -3 -5z"/>
<path d="M3395 650 c-3 -5 -1 -10 4 -10 6 0 11 5 11 10 0 6 -2 10 -4 10 -3 0
-8 -4 -11 -10z"/>
</g>
</svg>
